<?xml version="1.0" encoding="utf-8"?>
<!-- Generator: Adobe Illustrator 17.0.0, SVG Export Plug-In . SVG Version: 6.00 Build 0)  -->
<!DOCTYPE svg PUBLIC "-//W3C//DTD SVG 1.1//EN" "http://www.w3.org/Graphics/SVG/1.1/DTD/svg11.dtd">
<svg version="1.1" id="Layer_1" xmlns="http://www.w3.org/2000/svg" xmlns:xlink="http://www.w3.org/1999/xlink" x="0px" y="0px"
	 width="75px" height="75px" viewBox="0 0 75 75" enable-background="new 0 0 75 75" xml:space="preserve">
<path fill-rule="evenodd" clip-rule="evenodd" fill="#D2D2D2" d="M68,0H7C3.134,0,0,3.134,0,7v61c0,3.866,3.134,7,7,7h61
	c3.866,0,7-3.134,7-7V7C75,3.134,71.866,0,68,0z M58,41.065c0,0.492-0.399,0.891-0.891,0.891H41.957v15.152
	c0,0.492-0.399,0.891-0.891,0.891h-7.13c-0.492,0-0.891-0.399-0.891-0.891V41.956H17.891c-0.492,0-0.891-0.399-0.891-0.891v-7.13
	c0-0.492,0.399-0.891,0.891-0.891h15.152V17.891c0-0.492,0.399-0.891,0.891-0.891h7.13c0.492,0,0.891,0.399,0.891,0.891v15.152
	h15.152c0.492,0,0.891,0.399,0.891,0.891V41.065z"/>
<g id="Livello_1_1_">
</g>
</svg>
